<svg width="22" height="22" viewBox="0 0 22 22" fill="none" xmlns="http://www.w3.org/2000/svg">
<mask id="mask0_228_1456" style="mask-type:alpha" maskUnits="userSpaceOnUse" x="0" y="0" width="22" height="22">
<rect width="22" height="22" fill="#D9D9D9"/>
</mask>
<g mask="url(#mask0_228_1456)">
<path d="M11 14.2083C11.9625 14.2083 12.8181 13.9104 13.5667 13.3146C14.3153 12.7188 14.7966 11.9472 15.0105 11H13.1084C12.925 11.4125 12.6424 11.7448 12.2605 11.9969C11.8785 12.249 11.4584 12.375 11 12.375C10.5417 12.375 10.1216 12.249 9.73962 11.9969C9.35768 11.7448 9.07504 11.4125 8.89171 11H6.98962C7.20351 11.9472 7.68476 12.7188 8.43337 13.3146C9.18198 13.9104 10.0375 14.2083 11 14.2083ZM8.47921 9.625C8.80004 9.625 9.07122 9.51424 9.29275 9.29271C9.51428 9.07118 9.62504 8.8 9.62504 8.47917C9.62504 8.15833 9.51428 7.88715 9.29275 7.66563C9.07122 7.4441 8.80004 7.33333 8.47921 7.33333C8.15837 7.33333 7.88719 7.4441 7.66567 7.66563C7.44414 7.88715 7.33337 8.15833 7.33337 8.47917C7.33337 8.8 7.44414 9.07118 7.66567 9.29271C7.88719 9.51424 8.15837 9.625 8.47921 9.625ZM13.5209 9.625C13.8417 9.625 14.1129 9.51424 14.3344 9.29271C14.5559 9.07118 14.6667 8.8 14.6667 8.47917C14.6667 8.15833 14.5559 7.88715 14.3344 7.66563C14.1129 7.4441 13.8417 7.33333 13.5209 7.33333C13.2 7.33333 12.9289 7.4441 12.7073 7.66563C12.4858 7.88715 12.375 8.15833 12.375 8.47917C12.375 8.8 12.4858 9.07118 12.7073 9.29271C12.9289 9.51424 13.2 9.625 13.5209 9.625ZM11 19.25L9.67087 18.1042C8.12782 16.7597 6.85212 15.5986 5.84379 14.6208C4.83546 13.6431 4.03337 12.7646 3.43754 11.9854C2.84171 11.2063 2.42539 10.4882 2.18858 9.83125C1.95178 9.17431 1.83337 8.49444 1.83337 7.79167C1.83337 6.35556 2.31462 5.15625 3.27712 4.19375C4.23962 3.23125 5.43893 2.75 6.87504 2.75C7.66949 2.75 8.42573 2.91806 9.14379 3.25417C9.86185 3.59028 10.4806 4.06389 11 4.675C11.5195 4.06389 12.1382 3.59028 12.8563 3.25417C13.5743 2.91806 14.3306 2.75 15.125 2.75C16.5612 2.75 17.7605 3.23125 18.723 4.19375C19.6855 5.15625 20.1667 6.35556 20.1667 7.79167C20.1667 8.49444 20.0483 9.17431 19.8115 9.83125C19.5747 10.4882 19.1584 11.2063 18.5625 11.9854C17.9667 12.7646 17.1646 13.6431 16.1563 14.6208C15.148 15.5986 13.8723 16.7597 12.3292 18.1042L11 19.25ZM11 16.775C12.4667 15.5069 13.6737 14.4299 14.6209 13.5438C15.5681 12.6576 16.3167 11.8747 16.8667 11.1948C17.4167 10.5149 17.7987 9.91146 18.0125 9.38438C18.2264 8.85729 18.3334 8.32639 18.3334 7.79167C18.3334 6.875 18.0278 6.11111 17.4167 5.5C16.8056 4.88889 16.0417 4.58333 15.125 4.58333C14.407 4.58333 13.7424 4.78576 13.1313 5.19063C12.5202 5.59549 12.1 6.11111 11.8709 6.7375H10.1292C9.90004 6.11111 9.4799 5.59549 8.86879 5.19063C8.25768 4.78576 7.5931 4.58333 6.87504 4.58333C5.95837 4.58333 5.19448 4.88889 4.58337 5.5C3.97226 6.11111 3.66671 6.875 3.66671 7.79167C3.66671 8.32639 3.77365 8.85729 3.98754 9.38438C4.20143 9.91146 4.58337 10.5149 5.13337 11.1948C5.68337 11.8747 6.43198 12.6576 7.37921 13.5438C8.32643 14.4299 9.53337 15.5069 11 16.775Z" fill="#6852E0"/>
</g>
</svg>
